<?xml version="1.0" encoding="UTF-8"?><svg xmlns="http://www.w3.org/2000/svg" xmlns:xlink="http://www.w3.org/1999/xlink" viewBox="0 0 36.82 48.7"><defs><style>.cls-1{fill:url(#linear-gradient);}.cls-1,.cls-2,.cls-3,.cls-4{stroke-width:0px;}.cls-5{isolation:isolate;}.cls-2{fill:#ff6f00;mix-blend-mode:multiply;opacity:.5;}.cls-3{fill:url(#linear-gradient-2);}.cls-4{fill:url(#linear-gradient-3);}</style><linearGradient id="linear-gradient" x1="26.47" y1="-22.39" x2="26.47" y2="11.16" gradientUnits="userSpaceOnUse"><stop offset="0" stop-color="#e0d70d"/><stop offset="1" stop-color="#e68d1c"/></linearGradient><linearGradient id="linear-gradient-2" x1="16.11" y1="3.04" x2="16.11" y2="42.42" gradientUnits="userSpaceOnUse"><stop offset="0" stop-color="#faae1d"/><stop offset=".38" stop-color="#f4ea0e"/><stop offset="1" stop-color="#faac1e"/></linearGradient><linearGradient id="linear-gradient-3" x1="16.11" y1="3.04" x2="16.11" y2="42.42" xlink:href="#linear-gradient-2"/></defs><g class="cls-5"><g id="Layer_1"><path class="cls-1" d="m20.71,0h-4.6v48.7h4.6c8.9,0,16.11-10.9,16.11-24.35S29.61,0,20.71,0Z"/><ellipse class="cls-3" cx="16.11" cy="24.35" rx="16.11" ry="24.35"/><ellipse class="cls-2" cx="16.11" cy="24.35" rx="11.5" ry="17.38"/><path class="cls-4" d="m16.66,14.7l1.69,5.18,3.78.83c.5.11.7,1.04.34,1.57l-2.74,4.03.65,5.69c.09.75-.44,1.32-.88.97l-3.38-2.69-3.38,2.69c-.45.35-.97-.22-.88-.97l.65-5.69-2.74-4.03c-.36-.53-.16-1.46.34-1.57l3.78-.83,1.69-5.18c.22-.68.87-.68,1.09,0Z"/></g></g></svg>