<?xml version="1.0" encoding="UTF-8"?><svg id="Layer_1" xmlns="http://www.w3.org/2000/svg" viewBox="0 0 80.37 80.33"><defs><style>.cls-1{fill:#fff;stroke-width:0px;}</style></defs><path class="cls-1" d="m40.18,80.33c-1.86,0-3.72.01-5.59,0-1.38-.01-1.93-.49-2.14-1.84-.43-2.77-.87-5.54-1.25-8.32-.1-.76-.4-1.15-1.15-1.38-1.02-.31-2-.73-2.96-1.21-.57-.28-.95-.27-1.46.13-2.14,1.67-4.31,3.3-6.48,4.93-1.21.91-1.98.92-3.06-.15-2.71-2.68-5.41-5.37-8.03-8.13-1.05-1.11-.99-1.97-.07-3.19,1.53-2.02,3.07-4.03,4.64-6.01.45-.57.53-1.01.18-1.69-.57-1.11-1.03-2.27-1.43-3.45-.21-.64-.52-.92-1.18-1.01-2.69-.36-5.37-.78-8.06-1.15-1.62-.23-2.14-.77-2.15-2.38,0-3.6,0-7.2,0-10.8,0-1.62.52-2.17,2.12-2.41,2.8-.41,5.61-.83,8.41-1.29.28-.05.63-.33.76-.6.58-1.24,1.13-2.5,1.6-3.78.12-.31.03-.84-.17-1.11-1.58-2.1-3.19-4.16-4.82-6.22-1.1-1.4-1.22-1.99,0-3.27,2.5-2.66,5.05-5.3,7.71-7.79,1.75-1.63,2.23-1.52,4.1-.08,1.98,1.53,3.97,3.05,5.92,4.61.42.34.74.36,1.23.14,1.16-.53,2.37-.96,3.52-1.51.28-.13.58-.51.63-.81.47-2.8.84-5.61,1.32-8.4C32.66.3,33.11,0,34.99,0c3.54,0,7.08,0,10.62,0,1.57,0,2.07.42,2.31,1.96.43,2.71.86,5.42,1.23,8.14.11.78.38,1.21,1.18,1.45,1.07.32,2.1.81,3.12,1.29.45.21.75.18,1.14-.13,2.27-1.75,4.57-3.46,6.87-5.18.9-.68,1.78-.73,2.57.06,2.77,2.74,5.53,5.51,8.21,8.34,1.15,1.22,1.07,1.98.05,3.32-1.55,2.04-3.1,4.08-4.7,6.08-.39.49-.37.85-.12,1.38.57,1.21,1.1,2.45,1.55,3.7.2.55.47.73,1.03.81,2.81.39,5.61.84,8.41,1.27,1.32.2,1.88.81,1.89,2.14.02,3.75.02,7.51,0,11.26,0,1.31-.62,1.94-1.91,2.13-2.86.42-5.73.84-8.59,1.31-.31.05-.68.37-.82.66-.57,1.21-1.1,2.44-1.57,3.7-.11.29-.03.78.16,1.03,1.58,2.09,3.19,4.16,4.82,6.22,1.16,1.47,1.26,2.07,0,3.42-2.41,2.58-4.86,5.15-7.43,7.56-1.99,1.86-2.48,1.75-4.62.08-1.88-1.46-3.76-2.92-5.62-4.4-.41-.33-.72-.41-1.22-.17-1.16.54-2.34,1.03-3.54,1.48-.46.18-.63.41-.7.9-.38,2.75-.78,5.49-1.26,8.22-.35,2.03-.73,2.27-2.82,2.27-1.68,0-3.36,0-5.04,0Zm0-53.54c-7.46,0-13.37,5.89-13.38,13.34-.01,7.5,5.9,13.42,13.39,13.42,7.45,0,13.37-5.9,13.38-13.34.01-7.51-5.89-13.42-13.39-13.42Z"/></svg>