<?xml version="1.0" encoding="UTF-8"?><svg id="Layer_1" xmlns="http://www.w3.org/2000/svg" xmlns:xlink="http://www.w3.org/1999/xlink" viewBox="0 0 67.46 100.61"><defs><style>.cls-1{fill:url(#linear-gradient);}.cls-1,.cls-2,.cls-3,.cls-4{stroke-width:0px;}.cls-2{fill:url(#linear-gradient-2);}.cls-3{fill:url(#linear-gradient-3);}.cls-4{fill:url(#linear-gradient-4);}</style><linearGradient id="linear-gradient" x1="-27.59" y1="35.81" x2="-1.56" y2="35.81" gradientTransform="translate(26.44 22.15) rotate(-1.89)" gradientUnits="userSpaceOnUse"><stop offset="0" stop-color="lime"/><stop offset=".49" stop-color="#00c15b"/><stop offset="1" stop-color="lime"/></linearGradient><linearGradient id="linear-gradient-2" x1="31.29" y1="-18.43" x2="14.15" y2="17.66" gradientTransform="translate(26.44 22.15) rotate(-1.89)" gradientUnits="userSpaceOnUse"><stop offset="0" stop-color="#00a65b"/><stop offset=".34" stop-color="lime"/><stop offset=".69" stop-color="#00a65b"/><stop offset=".99" stop-color="lime"/></linearGradient><linearGradient id="linear-gradient-3" y1="26.62" x2="30.42" y2="26.62" xlink:href="#linear-gradient"/><linearGradient id="linear-gradient-4" x1="-25.64" y1="47.47" x2="40.41" y2="47.47" xlink:href="#linear-gradient-2"/></defs><polygon class="cls-1" points="16.05 57.49 26.11 59.39 10.06 59.36 0 57.46 16.05 57.49"/><polygon class="cls-2" points="56.13 .08 66.19 1.97 43.02 39.93 32.96 38.03 56.13 .08"/><polygon class="cls-3" points="57.4 38.08 3.31 98.71 16.05 57.49 0 57.46 14.75 0 56.13 .08 32.96 38.03 57.4 38.08"/><polygon class="cls-4" points="57.4 38.08 67.46 39.98 13.37 100.61 3.31 98.71 57.4 38.08"/></svg>