<?xml version="1.0" encoding="UTF-8"?><svg id="Layer_1" xmlns="http://www.w3.org/2000/svg" viewBox="0 0 56 56"><defs><style>.cls-1{fill:#1c75bc;}.cls-1,.cls-2{stroke-width:0px;}.cls-2{fill:#fff;}</style></defs><path class="cls-1" d="m28,56c15.46,0,28-12.54,28-28S43.46,0,28,0,0,12.54,0,28s12.54,28,28,28Z"/><path class="cls-2" d="m28,21.98c2.09,0,3.78-1.69,3.78-3.78v-1.89c0-2.09-1.69-3.78-3.78-3.78s-3.78,1.69-3.78,3.78v1.89c0,2.09,1.69,3.78,3.78,3.78Z"/><path class="cls-2" d="m31.35,23.29h-6.7c-1.95,0-3.53,1.58-3.53,3.53v7.52c0,.97.79,1.76,1.76,1.76h0c.52,0,.98-.22,1.3-.58v9.14c0,1.05.85,1.91,1.91,1.91h3.81c1.05,0,1.91-.85,1.91-1.91v-9.14c.32.35.79.58,1.3.58h0c.97,0,1.76-.79,1.76-1.76v-7.52c0-1.95-1.58-3.53-3.53-3.53Z"/><path class="cls-2" d="m16.77,18.88c2.09,0,3.78-1.69,3.78-3.78v-1.89c0-2.09-1.69-3.78-3.78-3.78s-3.78,1.69-3.78,3.78v1.89c0,2.09,1.69,3.78,3.78,3.78Z"/><path class="cls-2" d="m20.2,26.82v7.52c0,.51.14.99.39,1.39v5.83c0,.53-.21,1-.56,1.35-.34.34-.82.56-1.35.56h-3.81c-1.05,0-1.91-.85-1.91-1.91v-9.14c-.16.18-.36.32-.58.42s-.47.16-.72.16c-.97,0-1.76-.79-1.76-1.76v-7.52c0-.97.39-1.86,1.03-2.49.64-.64,1.52-1.03,2.49-1.03h6.7c1.53,0,2.84.98,3.32,2.34-1.87.52-3.25,2.25-3.25,4.29Z"/><path class="cls-2" d="m39.23,18.88c-2.09,0-3.78-1.69-3.78-3.78v-1.89c0-2.09,1.69-3.78,3.78-3.78,2.09,0,3.78,1.69,3.78,3.78v1.89c0,2.09-1.69,3.78-3.78,3.78Z"/><path class="cls-2" d="m35.8,26.82v7.52c0,.51-.14.99-.39,1.39v5.83c0,.53.21,1,.56,1.35.34.34.82.56,1.35.56,1.05,0,3.28,0,3.81,0,1.05,0,1.91-.85,1.91-1.91v-9.14c.16.18.36.32.58.42s.47.16.72.16c.97,0,1.76-.79,1.76-1.76v-7.52c0-.97-.39-1.86-1.03-2.49-.64-.64-1.52-1.03-2.49-1.03h-6.7c-1.53,0-2.84.98-3.32,2.34,1.87.52,3.25,2.25,3.25,4.29Z"/></svg>