<?xml version="1.0" encoding="UTF-8"?><svg id="Layer_1" xmlns="http://www.w3.org/2000/svg" xmlns:xlink="http://www.w3.org/1999/xlink" viewBox="0 0 551 550.99"><defs><style>.cls-1{fill:url(#linear-gradient-3);}.cls-1,.cls-2,.cls-3,.cls-4,.cls-5,.cls-6,.cls-7,.cls-8,.cls-9,.cls-10,.cls-11,.cls-12,.cls-13,.cls-14,.cls-15,.cls-16,.cls-17,.cls-18,.cls-19,.cls-20,.cls-21,.cls-22,.cls-23{stroke:#7f3f98;stroke-miterlimit:10;}.cls-2{fill:url(#linear-gradient-6);}.cls-3{fill:url(#linear-gradient-18);}.cls-4{fill:url(#linear-gradient);}.cls-5{fill:url(#linear-gradient-8);}.cls-6{fill:url(#linear-gradient-10);}.cls-7{fill:url(#linear-gradient-2);}.cls-8{fill:url(#linear-gradient-13);}.cls-9{fill:url(#linear-gradient-19);}.cls-10{fill:url(#linear-gradient-16);}.cls-11{fill:url(#linear-gradient-12);}.cls-12{fill:url(#linear-gradient-5);}.cls-13{fill:url(#linear-gradient-20);}.cls-14{fill:url(#linear-gradient-4);}.cls-15{fill:url(#linear-gradient-17);}.cls-16{fill:url(#linear-gradient-9);}.cls-17{fill:url(#linear-gradient-7);}.cls-18{fill:url(#linear-gradient-21);}.cls-19{fill:url(#linear-gradient-15);}.cls-20{fill:url(#New_Gradient_Swatch_1);}.cls-21{fill:url(#linear-gradient-14);}.cls-22{fill:url(#linear-gradient-11);}.cls-23{fill:none;}</style><linearGradient id="New_Gradient_Swatch_1" x1="68.32" y1="500.89" x2="514.83" y2="54.38" gradientTransform="translate(12.27 -30.24) rotate(.36)" gradientUnits="userSpaceOnUse"><stop offset="0" stop-color="#00c15b"/><stop offset=".17" stop-color="lime"/><stop offset=".33" stop-color="#00c15b"/><stop offset=".45" stop-color="#00b55b"/><stop offset=".57" stop-color="lime"/><stop offset=".72" stop-color="#00c300"/><stop offset=".85" stop-color="lime"/><stop offset="1" stop-color="#00c300"/></linearGradient><linearGradient id="linear-gradient" x1="31.55" y1="275.5" x2="519.45" y2="275.5" gradientUnits="userSpaceOnUse"><stop offset="0" stop-color="#d517bf"/><stop offset=".1" stop-color="#bc20bd"/><stop offset=".23" stop-color="#a02bbc"/><stop offset=".37" stop-color="#8b34bb"/><stop offset=".53" stop-color="#7c3aba"/><stop offset=".72" stop-color="#733dba"/><stop offset="1" stop-color="#713fba"/></linearGradient><linearGradient id="linear-gradient-2" x1="15.68" y1="298.94" x2="23.16" y2="298.94" xlink:href="#linear-gradient"/><linearGradient id="linear-gradient-3" x1="30.3" y1="380.79" x2="51.39" y2="380.79" xlink:href="#linear-gradient"/><linearGradient id="linear-gradient-4" x1="71.37" y1="451.2" x2="104.13" y2="451.2" xlink:href="#linear-gradient"/><linearGradient id="linear-gradient-5" x1="18.79" y1="214.55" x2="32.49" y2="214.55" xlink:href="#linear-gradient"/><linearGradient id="linear-gradient-6" x1="334.69" y1="31.47" x2="378.78" y2="31.47" xlink:href="#linear-gradient"/><linearGradient id="linear-gradient-7" x1="412.79" y1="71.1" x2="450.28" y2="71.1" xlink:href="#linear-gradient"/><linearGradient id="linear-gradient-8" x1="167.88" y1="33.01" x2="211.68" y2="33.01" xlink:href="#linear-gradient"/><linearGradient id="linear-gradient-9" x1="97.26" y1="73.98" x2="134.26" y2="73.98" xlink:href="#linear-gradient"/><linearGradient id="linear-gradient-10" x1="45.65" y1="136.75" x2="72.31" y2="136.75" xlink:href="#linear-gradient"/><linearGradient id="linear-gradient-11" x1="134.32" y1="502.67" x2="175.58" y2="502.67" xlink:href="#linear-gradient"/><linearGradient id="linear-gradient-12" x1="475.8" y1="132.81" x2="503.1" y2="132.81" xlink:href="#linear-gradient"/><linearGradient id="linear-gradient-13" x1="516.96" y1="209.94" x2="531.43" y2="209.94" xlink:href="#linear-gradient"/><linearGradient id="linear-gradient-14" x1="501.57" y1="377.01" x2="522.05" y2="377.01" xlink:href="#linear-gradient"/><linearGradient id="linear-gradient-15" x1="528.53" y1="294.51" x2="535.33" y2="294.51" xlink:href="#linear-gradient"/><linearGradient id="linear-gradient-16" x1="297.05" y1="528.81" x2="342.66" y2="528.81" xlink:href="#linear-gradient"/><linearGradient id="linear-gradient-17" x1="250" y1="18.02" x2="296.24" y2="18.02" xlink:href="#linear-gradient"/><linearGradient id="linear-gradient-18" x1="212.37" y1="529.49" x2="258.09" y2="529.49" xlink:href="#linear-gradient"/><linearGradient id="linear-gradient-19" x1="449.88" y1="448.2" x2="482.15" y2="448.2" xlink:href="#linear-gradient"/><linearGradient id="linear-gradient-20" x1="379.2" y1="500.72" x2="420.12" y2="500.72" xlink:href="#linear-gradient"/><linearGradient id="linear-gradient-21" x1="128.2" y1="265.34" x2="428.97" y2="265.34" xlink:href="#linear-gradient"/></defs><circle class="cls-20" cx="275.5" cy="275.5" r="275" transform="translate(-3.76 3.82) rotate(-.79)"/><path class="cls-4" d="m229.92,515.17c-112.09-21.27-197.48-119.55-198.36-237.85-1-134.51,107.61-244.75,242.12-245.75,65.16-.48,126.61,24.43,173.02,70.16,46.42,45.73,72.25,106.8,72.73,171.96h0c.48,65.16-24.43,126.6-70.16,173.02-45.73,46.41-106.8,72.25-171.96,72.73-16.2.12-32.05-1.35-47.4-4.26ZM319.18,47.94c-14.81-2.81-29.99-4.19-45.41-4.08-61.87.46-119.86,24.99-163.29,69.06-43.42,44.08-67.09,102.42-66.62,164.3.46,61.87,24.99,119.86,69.07,163.28,44.08,43.42,102.42,67.08,164.3,66.62,61.87-.46,119.86-24.99,163.29-69.06,43.42-44.08,67.09-102.42,66.62-164.29-.46-61.87-24.99-119.86-69.07-163.28-33.1-32.61-74.25-54.07-118.89-62.55Z"/><path class="cls-7" d="m17.48,275.91h0c-1.01,0-1.81.83-1.8,1.84.12,14.34,1.43,28.71,3.87,42.73.15.89.93,1.51,1.8,1.51.1,0,.2,0,.3-.03.99-.17,1.65-1.12,1.48-2.1-2.41-13.82-3.69-27.99-3.82-42.13,0-1-.83-1.81-1.83-1.8Z"/><path class="cls-1" d="m33.84,360.76c-.34-.95-1.37-1.44-2.32-1.11-.95.33-1.44,1.37-1.11,2.32,4.75,13.46,10.66,26.62,17.57,39.11.34.61.96.94,1.61.94.29,0,.59-.08.87-.23.88-.49,1.2-1.59.71-2.47-6.82-12.32-12.65-25.3-17.33-38.56Z"/><path class="cls-14" d="m74.62,434.52c-.63-.79-1.77-.92-2.56-.3-.79.62-.92,1.77-.3,2.56,8.87,11.19,18.74,21.73,29.33,31.32.35.32.79.47,1.24.47.49,0,.98-.2,1.34-.6.68-.74.62-1.9-.13-2.57-10.44-9.46-20.17-19.85-28.92-30.88Z"/><path class="cls-12" d="m20.32,237.04c.1.02.2.02.3.02.88,0,1.64-.64,1.78-1.54,2.18-13.92,5.55-27.75,10-41.1.32-.95-.2-1.98-1.15-2.3-.95-.31-1.99.2-2.3,1.15-4.51,13.54-7.93,27.57-10.14,41.69-.16.99.52,1.92,1.52,2.08Z"/><path class="cls-2" d="m336.08,26.51c13.69,3.32,27.2,7.82,40.16,13.36.24.1.49.15.73.15.7,0,1.37-.42,1.66-1.1.4-.92-.03-1.99-.96-2.39-13.14-5.63-26.84-10.19-40.73-13.55-.98-.24-1.96.36-2.2,1.34-.24.98.36,1.96,1.34,2.2Z"/><path class="cls-17" d="m413.63,59.69c11.85,7.6,23.15,16.24,33.62,25.7.35.32.79.47,1.23.47.49,0,.98-.21,1.34-.6.67-.74.62-1.9-.13-2.57-10.61-9.59-22.08-18.36-34.09-26.06-.84-.54-1.97-.3-2.51.55-.54.85-.3,1.97.55,2.51Z"/><path class="cls-5" d="m169.71,41.93c.25,0,.49-.05.73-.16,12.85-5.78,26.27-10.52,39.88-14.1.97-.25,1.55-1.25,1.3-2.22-.25-.98-1.26-1.56-2.22-1.3-13.81,3.62-27.42,8.43-40.45,14.3-.92.41-1.33,1.49-.91,2.41.31.68.97,1.08,1.68,1.07Z"/><path class="cls-16" d="m99.09,89.05c.44,0,.88-.17,1.23-.49,10.28-9.63,21.43-18.48,33.13-26.3.84-.56,1.06-1.69.5-2.52-.56-.84-1.69-1.06-2.52-.5-11.87,7.93-23.18,16.9-33.6,26.67-.73.69-.77,1.84-.08,2.57.36.38.85.58,1.34.57Z"/><path class="cls-6" d="m46.61,156.29c.28.15.57.21.87.21.65,0,1.27-.35,1.6-.97,6.6-12.43,14.29-24.41,22.86-35.61.61-.8.46-1.94-.34-2.55-.8-.61-1.94-.46-2.55.34-8.69,11.36-16.5,23.51-23.19,36.11-.47.89-.13,1.99.75,2.46Z"/><path class="cls-22" d="m174.48,511c-12.93-5.56-25.5-12.24-37.36-19.86-.84-.54-1.97-.3-2.51.55-.54.84-.3,1.97.55,2.51,12.03,7.74,24.78,14.51,37.89,20.15.24.1.49.15.73.15.7,0,1.37-.42,1.66-1.1.4-.92-.03-1.99-.95-2.39Z"/><path class="cls-11" d="m501.3,152.34c.3,0,.59-.08.87-.23.88-.49,1.2-1.6.71-2.47-6.92-12.48-14.94-24.48-23.83-35.67-.63-.79-1.77-.92-2.56-.29-.79.62-.92,1.77-.29,2.56,8.77,11.03,16.67,22.86,23.5,35.17.34.6.96.94,1.61.94Z"/><path class="cls-8" d="m529.62,232.36c.1,0,.2-.01.3-.03.99-.17,1.65-1.12,1.48-2.11-2.47-14.07-6.14-28.03-10.91-41.49-.34-.94-1.37-1.44-2.32-1.11-.95.34-1.44,1.38-1.11,2.32,4.7,13.27,8.32,27.04,10.75,40.91.16.89.93,1.51,1.8,1.5Z"/><path class="cls-21" d="m520.81,355.71c-.96-.31-1.99.2-2.3,1.15-4.47,13.35-10.09,26.43-16.72,38.87-.47.89-.14,1.99.75,2.46.28.15.57.22.87.21.65,0,1.27-.35,1.59-.96,6.72-12.62,12.43-25.89,16.96-39.43.32-.95-.2-1.98-1.15-2.3Z"/><path class="cls-19" d="m535.32,272.95c0-1.01-.83-1.81-1.83-1.81s-1.81.83-1.81,1.83v.61c.11,14.14-.94,28.33-3.13,42.18-.16.99.52,1.92,1.51,2.08.1.02.2.02.3.02.87,0,1.64-.64,1.78-1.54,2.22-14.04,3.29-28.44,3.18-42.79v-.6Z"/><path class="cls-10" d="m340.38,523.4c-13.6,3.55-27.62,5.99-41.67,7.25-1,.09-1.74.97-1.65,1.98.09.95.89,1.66,1.83,1.66.05,0,.1,0,.15,0,14.26-1.28,28.48-3.76,42.26-7.35.97-.25,1.55-1.25,1.3-2.22-.25-.97-1.25-1.55-2.22-1.3Z"/><path class="cls-15" d="m296.24,18.3c.07-1-.68-1.88-1.68-1.95-14.2-1.03-28.74-.89-42.9.4-1,.09-1.74.98-1.65,1.98.09.95.89,1.66,1.82,1.66.05,0,.1,0,.15,0,13.97-1.27,28.3-1.4,42.3-.39,1.02.05,1.88-.68,1.95-1.68Z"/><path class="cls-3" d="m256.41,530.99c-14.08-1.04-28.14-3.25-41.78-6.58-.98-.25-1.96.36-2.2,1.34-.24.98.36,1.96,1.34,2.2,13.84,3.37,28.1,5.62,42.38,6.67.05,0,.1,0,.15,0,.94,0,1.73-.73,1.8-1.69.07-1-.68-1.88-1.68-1.95Z"/><path class="cls-9" d="m478.88,431.31c-8.57,11.17-18.13,21.71-28.42,31.34-.73.69-.77,1.84-.09,2.57.36.39.85.58,1.34.58.44,0,.88-.17,1.23-.49,10.44-9.76,20.14-20.46,28.83-31.78.61-.8.46-1.94-.34-2.55-.8-.61-1.94-.46-2.55.34Z"/><path class="cls-13" d="m417.29,488.9c-11.73,7.81-24.19,14.69-37.01,20.45-.92.41-1.33,1.49-.92,2.4.3.68.98,1.08,1.68,1.08.24,0,.49-.05.73-.16,13.01-5.84,25.64-12.81,37.54-20.73.84-.56,1.06-1.69.51-2.52-.56-.83-1.69-1.06-2.52-.51Z"/><path class="cls-18" d="m370.21,410.44c-7.15,11.49-22.99,18.79-16.97,36.72.19-.12-.45.5-.68.38-14.36-7.78-29.82-14.12-40.39-27.29-2.86-3.56-4.5-8.54-5.37-13.13-.94-4.95-2.27-7.73-7.64-9.66-4.07-1.46-6.79-6.61-10.18-10.05-2.81-2.86-5.33-7.09-8.69-7.97-2.58-.67-7.88,2.23-9.03,4.84-1.24,2.8.25,7.47,1.84,10.68,1.45,2.94,5.01,4.76,6.95,7.56,5.36,7.71,11.12,14.98,9.85,25.77-.72,6.08,1.96,12.56,3.39,20.42-2.67-2.5-4.78-4.48-7.16-6.72-2.02,1.68-4.79,3.97-8.79,7.29,3.08-8.01,5.94-13.95,7.64-20.2,2.77-10.21-3.59-17.45-9.3-24.7-.88-1.12-2.17-1.9-3.16-2.94-7.86-8.29-9.29-14.76-4.58-20.5,6.1-7.45,12.76-8.06,23.66-1.56,8.56-7.07,17.23-14.58,26.29-21.58,4.28-3.3,9.25-5.77,14.05-8.35,7.72-4.15,14.89-3.59,21.24,2.94,1.34,1.38,3.08,2.39,4.94,3.8,6.3-6.86,12.9-13.03,10.67-23.25-25.43,12.6-52.7,6.63-79.09,7.69-16.19.65-32.53-2.54-48.81-3.93-22.54-1.92-41.01-14.32-60.57-23.74-9.79-4.72-19.05-10.6-28.33-16.32-2.84-1.75-6.34-4.35-7.06-7.19-1.1-4.32-1.39-9.92.58-13.57,1.33-2.47,7.49-4.17,10.88-3.43,25.8,5.69,51.27,13.04,77.2,17.99,37.08,7.09,74.67,10.05,112.46,7.9,16.97-.97,30.34-14.18,33.26-31.1,1.7-9.84-3.1-16.52-10.35-23.05-5.9,6.69-13.02,10.06-24.57,5.76,7.3-1.94,12.34-3.27,17.37-4.61-.11-.42-.23-.84-.34-1.26-3.86-.85-7.71-1.69-11.57-2.54-.33-.97-.66-1.94-.99-2.91,14.79.69,25.88-3.48,28.91-19.37-23.1,19.61-48.84,12.55-74.04,9.04-7.38-1.03-6.92-6.7-4.74-12,9.82-23.87,35.67-38.48,60.76-33.16,6.54,1.39,12.2,6.98,17.81,10.36,2.04-7.64-.26-12.43-9.82-13.68-20.93-2.75-42.27-6.09-58.73,12.63-.38.43-1.54.17-2.39.23,2.77-14.69,20.2-19.34,64.77-18.18-17.03-8.18-34.41-5.25-52.27-.08,3.32-6.22,6.98-8.07,19.01-8.87,7.34-.48,14.75-.09,22.54-.09-11.23-23.13-57.98-45.57-94.34-28.37,4.79,7.41,9.85,14.69,14.33,22.3,5.77,9.8,8.48,21,13.49,31.27,3.65,7.5-.13,18.62-.63,28.81-1.11-.86-2.3-1.31-2.66-2.13-14.06-32.08-47.22-54.44-77.71-49.17-11.24,1.94-23.27.26-34.11,3.24-11.12,3.05-18.02,12.68-23.32,22.58.6.71,1.2,1.42,1.8,2.13,1.68-1.04,4.03-1.68,4.93-3.19,7.21-12.13,19.16-16.11,31.81-18.46,20.49-3.79,40.65-5.07,58.22,9.76,3.18,2.68,8.38,3.03,11.45,5.78,6.22,5.58,12.1,11.7,17.21,18.29,4.08,5.27,6.65,11.67,10.2,17.38,3.05,4.9.75,8.13-2.79,11.16-8.46,7.25-16.13,15.87-25.62,21.36-12.5,7.24-26.39,12.11-39.8,17.74-1.35.57-3.45-.64-5.36-2.75,9.23-3.17,18.86-5.52,27.59-9.73,8.49-4.09,16.06-10.09,24.04-15.25-.41-1.1-.83-2.2-1.24-3.3-9.8-.75-19.62-1.39-29.41-2.27-8.88-.79-17.76-1.65-26.6-2.82-15.11-1.99-23.92-13.15-33.88-22.59.5-.77,1.01-1.55,1.51-2.32,2.98,2.08,6.45,3.71,8.84,6.33,9.07,9.91,20.1,14.75,33.51,15.33,15.78.68,31.52,2.39,47.3,3.09,9.68.43,16.65-4.54,18.07-12.61-3.92.89-7.7,1.11-10.91,2.58-17.04,7.81-33.53,2.73-50.57-.55-20.19-3.88-34.48-19.12-53.35-25.04-4.82-1.51-9.73-2.91-14.7-3.79-5.75-1.02-8.64-6.12-4.77-11.66,9.64-13.8,21.41-24.94,39.84-25.08,21.29-.16,42.59-.78,63.85-.15,7.98.24,15.86,3.46,22.92,5.11-3.5-19.33-27.78-41.84-50.76-44.1-10.25-1.01-20.68-.69-31.01-.37-11.37.36-21.06,5.02-29.32,12.92-2.2,2.1-5.23,3.33-8.43,3.99,9.26-11.83,20.49-20.63,35.97-21.24,14.28-.57,28.59-.12,42.92-.12.38-12.72-11.41-27.49-27.01-30.41-11.39-2.13-23.29-1.93-34.96-2.05-20.38-.2-32.56,12.14-41.75,28.58-1.77,3.17-3.54,6.34-5.31,9.51-.63-.45-1.27-.89-1.9-1.34,4.7-17.35,15.28-29.91,31.9-37.93,20.79-10.03,58.45-2.95,78.14,15.29,2.95-2,6.18-3.86,9.03-6.18,21.29-17.32,56.58-12.87,72.31,9.84,6.99,10.08,12.4,21.25,18.66,31.85.95,1.61,2.61,2.82,3.97,4.18,8.04,8.03,15.89,16.28,24.22,24,4.15,3.85,9.43,6.47,13.78,10.14,4.26,3.59,9.11,6.61,3.61,14.05-2.7,3.65-1.74,10.66-1.11,15.99,1.55,13.24-1.57,24.57-11.38,33.35,5.99,8.97,11.88,17.68,17.65,26.47,6.81,10.37,6.09,16.55-2.93,26.07-4.16,4.38-7.95,7.94-5.03,15.58,1.47,3.85-2.64,9.84-4.26,14.85-1.32,4.09-3.79,8.14-3.85,12.24-.13,9.67-.92,12.54-12.3,27.08,2.61,2.26,4.93,5.25,8,6.76,21.83,10.73,36.85,27.95,47.88,49.14,3.84,7.37,7.86,14.65,11.47,22.13,1.2,2.48,1.34,5.47.39,8.55-5.56-10.41-10.11-21.54-16.92-31.04-9.11-12.72-18.85-25.43-30.43-35.79-9.4-8.41-21.72-13.51-29.86-23.91-5.1-6.51-11.81-6.82-18.37-2.61-9.12,5.85-17.87,12.26-28.27,19.46,9.51,6.3,12.82,12.6,2.54,19.84.78.58,1.57,1.15,2.35,1.73,5.73-3.84,11.63-7.44,17.14-11.57,10.7-8.03,17.77-8.29,29.29-.15-.79,1.87-1.63,3.85-3.07,7.27,5.58-3.6,10-6.45,14.43-9.3.68.95,1.36,1.91,2.05,2.86-7.12,5.27-14.06,10.83-21.43,15.72-7.56,5.02-16.73,7.73-21.14,16.88-2.93,6.1.11,13.46,8.71,17.71,5.68,2.8,10.74,4.07,14.58-4.1,4.07-8.65,9.62-16.95,20.27-19.9Zm-210.63-124.11c.32-.73.63-1.46.95-2.19,1.26.15,2.76-.1,3.76.5,17.51,10.43,36.95,15.54,56.55,19.68,8.89,1.88,18.66-.15,27.44,2.01,24.55,6.04,49.43,7.69,74.48,7.48,16.9-.14,34.96,3.09,48.26-12.07,4.55-5.19,9.25-10.23,13.84-15.38,5.48-6.15,6.46-12.31-.38-19.03-.82,2.26-1.46,4.07-2.14,5.86-7.66,20.35-21.95,30.25-44.09,30.57-48.66.7-96.42-5.5-143.64-16.6-12.86-3.02-25.44-7.2-38.26-10.39-2.27-.57-6.49.34-7.34,1.91-1.29,2.37-1.13,6.17-.21,8.9.72,2.15,3.3,3.98,5.45,5.28,9.34,5.6,18.87,10.89,28.27,16.39,27.99,16.41,57.8,26.54,90.6,26.33,21.85-.14,43.77-1.47,65.54-.19,15.92.94,27.72-3.47,35.56-17.14,2.22-3.87,2.71-8.71,4-13.11-.95-.4-1.91-.79-2.86-1.19-3.08,2.48-5.89,5.44-9.3,7.32-4.65,2.56-9.76,6.07-14.67,6.08-26.17.07-52.36-.36-78.5-1.62-11.11-.54-22.14-5.31-33.12-5.02-24.49.64-45.86-9.87-68.28-16.62-4.34-1.31-7.93-5.1-11.87-7.74Zm172.6-154.56c-5.02-7.68-10.34-16.53-16.37-24.88-8.02-11.11-19.54-15.95-32.9-17.96-17.75-2.67-30.99,4.82-42.48,17.18,2.33,5.81,3.27,13.22,7.44,17.44,7.02,7.1,15.84,12.05,26.84,5.79,3.5-1.99,8.44-2.42,12.61-2.1,14.91,1.16,29.78,2.95,44.86,4.53Zm-78.07,59.56c-28.49-21.02-77.9-17.83-86.68,4.37,28.5-1.44,57.33-2.89,86.68-4.37Zm-7.61,5.7c6.18,11.09,3.12,21.38-2.65,34.18,14.25-2.38,26.35-4.4,38.72-6.46-10.32-32.51-13.22-29.66-36.07-27.71Zm45.69,6.48c-2.43-24.04-22.68-41.18-38.9-35.07,12.45,11.22,25.47,22.96,38.9,35.07Zm35.28-10.94c17.73-.14,34.3,3.7,49.59,12.91-5.2-9.88-10.37-18.9-23.07-18.98-9.32-.06-18.61-.98-26.51,6.07Zm26.9,7.15v27.02c9.75-.22,16.7-6.49,22.36-15.99-8.1-3.99-15.72-7.75-22.36-11.03Zm-44.25,200.3c.37,2.95.83,6.65,1.51,12.09,10.84-10.63,20.22-19.84,29.61-29.04-.65-.84-1.31-1.68-1.96-2.52-9.49,6.34-18.99,12.68-29.16,19.47Zm40.75-14.44c-.72-.54-1.45-1.09-2.17-1.63-10.81,11.35-21.63,22.71-32.44,34.06-.77-.5-1.53-1-2.3-1.51,1.84,1.61,3.68,3.22,3.59,3.14,7.11-6.68,13.77-12.58,20.01-18.9,4.72-4.78,8.9-10.09,13.31-15.16Zm-48.08,9.64c2.85-5.28,4.58-8.5,7.55-14-4.88-.76-8.9-2.49-12.05-1.49-2.21.7-5.19,6.24-4.38,7.68,1.83,3.25,5.79,5.29,8.88,7.82Zm-99.81-198.48c-9.43,1.17-17.28,2.13-25.13,3.1-.07.5-.15,1-.22,1.5,6.04,2.65,12.07,5.29,18.11,7.93,2.24-3.88,4.35-7.54,7.24-12.54Zm30.96,23.04c3.11-4.52,5.52-7.08,6.52-10.1.27-.83-4.39-4.78-5.54-4.31-2.92,1.21-5.69,3.8-7.29,6.55-.47.81,3.14,4.01,6.32,7.86Zm65.96,2.76c4.87,1.51,7.46,2.31,9.87,3.06.86-6.55,1.66-12.64,2.45-18.73-.43-.21-.87-.42-1.3-.62-3.37,4.98-6.74,9.97-11.02,16.29Zm50.5-10.03c-3.29-2.01-5.36-4.29-7.02-4.03-1.85.3-3.33,2.91-4.97,4.51,1.86,1.76,3.49,4.36,5.67,4.94,1.21.32,3.31-2.73,6.32-5.43Zm-44.13,25.54c9.86,1.65,21.33,3.57,32.81,5.49.12.27.23.54.35.81-5.08.51-10.15,1.02-16.3,1.64,5.22,6.85,10.28,13.48,15.33,20.11-.36.2-.73.4-1.09.6-10.78-9.93-21.56-19.86-31.1-28.65Zm-171.56,41.73c4.89-13.56,20.48-19.53,36-13.32-14.35,2.01-27.4,2-36,13.32Zm234.23,165.73c7.43-7.78,14.87-15.56,22.3-23.33.94.89,1.89,1.79,2.83,2.68-7.36,7.88-14.72,15.77-22.07,23.65-1.02-1-2.04-2-3.05-3Zm-205.75-192.04c-5.99,1.28-11.98,2.56-17.98,3.84-.29-1.1-.58-2.19-.87-3.29,5.95-1.55,11.9-3.09,17.84-4.64.33,1.36.67,2.72,1,4.08Zm246.37,180.33c-4.46,4.94-8.92,9.89-13.38,14.83-.87-.77-1.73-1.54-2.6-2.31,4.31-5.1,8.62-10.2,12.94-15.3,1.01.93,2.03,1.85,3.04,2.78Z"/><circle class="cls-23" cx="275.5" cy="275.5" r="275" transform="translate(-3.76 3.82) rotate(-.79)"/></svg>