<?xml version="1.0" encoding="UTF-8"?><svg id="Layer_1" xmlns="http://www.w3.org/2000/svg" xmlns:xlink="http://www.w3.org/1999/xlink" viewBox="0 0 55.77 55.77"><defs><style>.cls-1{fill:#a9d1db;}.cls-1,.cls-2,.cls-3,.cls-4{stroke-width:0px;}.cls-2{fill:#fff;}.cls-3{fill:url(#Degradado_sin_nombre_4);}.cls-4{fill:#d1e2ea;}</style><linearGradient id="Degradado_sin_nombre_4" x1="0" y1="27.88" x2="55.77" y2="27.88" gradientTransform="translate(42.97 -8.55) rotate(67.5)" gradientUnits="userSpaceOnUse"><stop offset="0" stop-color="#0090c7"/><stop offset="1" stop-color="#42b3e5"/></linearGradient></defs><circle class="cls-3" cx="27.88" cy="27.88" r="27.88" transform="translate(-8.55 42.97) rotate(-67.5)"/><path class="cls-1" d="m14.65,31.26l3.37,10.3c.24.73,1.14.99,1.73.5l10.06-8.3s-10.69-4.17-10.69-3.94-4.47,1.44-4.47,1.44Z"/><path class="cls-2" d="m41.19,11.46c-6.57,2.6-27.77,11.29-35.79,14.58-1.06.43-1,1.95.1,2.3l9.16,2.92,3.36,10.27c.13.41.48.68.86.75.31.06.76-8.32.76-8.32,0,0,9.63,7.14,14.2,10.52,1.13.83,2.73.21,3-1.17,1.36-7.01,4.76-24.55,5.93-30.55.17-.9-.71-1.64-1.57-1.3Z"/><path class="cls-4" d="m18.86,42.28c.31.06.76-8.32.76-8.32l15.82-14.86c.11-.1-.02-.27-.15-.19l-20.65,12.35,3.36,10.27c.13.41.48.68.86.75Z"/></svg>