<?xml version="1.0" encoding="UTF-8"?><svg id="Layer_1" xmlns="http://www.w3.org/2000/svg" viewBox="0 0 56 56"><defs><style>.cls-1{fill:#0098ea;}.cls-1,.cls-2{stroke-width:0px;}.cls-2{fill:#fff;}</style></defs><path class="cls-1" d="m28,56c15.46,0,28-12.54,28-28S43.46,0,28,0,0,12.54,0,28s12.54,28,28,28Z"/><path class="cls-2" d="m37.56,15.63h-19.12c-3.52,0-5.74,3.79-3.98,6.86l11.8,20.45c.77,1.34,2.7,1.34,3.47,0l11.8-20.45c1.77-3.06-.46-6.86-3.98-6.86h0Zm-11.31,21.18l-2.57-4.97-6.2-11.09c-.41-.71.1-1.62.95-1.62h7.82v17.69h0Zm12.26-16.07l-6.2,11.1-2.57,4.97v-17.69h7.82c.86,0,1.36.91.95,1.62Z"/></svg>