<?xml version="1.0" encoding="UTF-8"?><svg id="Layer_1" xmlns="http://www.w3.org/2000/svg" xmlns:xlink="http://www.w3.org/1999/xlink" viewBox="0 0 120.26 84.16"><defs><style>.cls-1{fill:url(#linear-gradient);}.cls-1,.cls-2{stroke-width:0px;}.cls-2{fill:#fff;fill-rule:evenodd;}</style><linearGradient id="linear-gradient" x1="0" y1="42.08" x2="120.26" y2="42.08" gradientUnits="userSpaceOnUse"><stop offset="0" stop-color="#ed1c24"/><stop offset=".38" stop-color="#a81e2d"/><stop offset="1" stop-color="#ed1c24"/></linearGradient></defs><path class="cls-1" d="m103.92,83.24s-32.84.92-43.79.92-43.79-.92-43.79-.92c-8.48,0-15.42-6.94-15.42-15.42,0,0-.92-19.3-.92-25.74s.92-25.74.92-25.74C.92,7.86,7.86.92,16.34.92c0,0,32.84-.92,43.79-.92s43.79.92,43.79.92c8.48,0,15.42,6.94,15.42,15.42,0,0,.92,19.28.92,25.74s-.92,25.74-.92,25.74c0,8.48-6.94,15.42-15.42,15.42Z"/><polygon class="cls-2" points="48.61 60.88 48.61 23.28 78.99 42.08 48.61 60.88"/></svg>